<svg id="SvgjsSvg1009" xmlns="http://www.w3.org/2000/svg" version="1.1" xmlns:xlink="http://www.w3.org/1999/xlink" xmlns:svgjs="http://svgjs.com/svgjs" width="66" height="66" viewBox="0 0 66 66"><title>Shape 3 copy 2</title><desc>Created with Avocode.</desc><defs id="SvgjsDefs1010"></defs><path id="SvgjsPath1011" d="M402.981 465.806C420.772 465.806 435.195 480.229 435.195 498.02C435.195 515.811 420.772 530.2339999999999 402.981 530.2339999999999C385.19 530.2339999999999 370.767 515.8109999999999 370.767 498.0199999999999C370.767 480.2289999999999 385.19 465.8059999999999 402.981 465.8059999999999ZM406.57456 508.69444L400.68800000000005 514.581C400.53100000000006 514.73833 403.09867 512.17056 406.57456 508.69444000000004ZM423.797 491.472C424.11100000000005 491.15666999999996 413.52633000000003 501.74222 406.57456 508.69444Z " fill="#00a185" fill-opacity="1" transform="matrix(1,0,0,1,-370,-465)"></path><path id="SvgjsPath1012" d="M402.981 465.806C420.772 465.806 435.195 480.229 435.195 498.02C435.195 515.811 420.772 530.2339999999999 402.981 530.2339999999999C385.19 530.2339999999999 370.767 515.8109999999999 370.767 498.0199999999999C370.767 480.2289999999999 385.19 465.8059999999999 402.981 465.8059999999999ZM406.57456 508.69444L400.68800000000005 514.581C400.53100000000006 514.73833 403.09867 512.17056 406.57456 508.69444000000004ZM423.797 491.472C424.11100000000005 491.15666999999996 413.52633000000003 501.74222 406.57456 508.69444Z " fill="#63a63e" fill-opacity="1" transform="matrix(1,0,0,1,-370,-465)"></path><path id="SvgjsPath1013" d="M423.475 491.472L400.36600000000004 514.581C399.89500000000004 515.053 399.12700000000007 515.053 398.658 514.581L395.242 511.134C394.773 510.65700000000004 394.00300000000004 509.88300000000004 393.534 509.406L385.58799999999997 501.055C385.35499999999996 500.819 385.22999999999996 500.49 385.22999999999996 500.177C385.22999999999996 499.86600000000004 385.35499999999996 499.567 385.58799999999997 499.33000000000004L389.07 496.19200000000006C389.305 495.95000000000005 389.621 495.83400000000006 389.932 495.83700000000005C390.238 495.838 390.54400000000004 495.9560000000001 390.778 496.19200000000006L398.658 504.2320000000001C399.127 504.71100000000007 399.89500000000004 504.71100000000007 400.36600000000004 504.2320000000001L418.35300000000007 486.29800000000006C418.82200000000006 485.82300000000004 419.5900000000001 485.82300000000004 420.0590000000001 486.29800000000006L423.4750000000001 489.74700000000007C423.9460000000001 490.2200000000001 423.9460000000001 490.9990000000001 423.4750000000001 491.4720000000001Z " fill="#ffffff" fill-opacity="1" transform="matrix(1,0,0,1,-370,-465)"></path></svg>