<svg id="SvgjsSvg1000" xmlns="http://www.w3.org/2000/svg" version="1.1" xmlns:xlink="http://www.w3.org/1999/xlink" xmlns:svgjs="http://svgjs.com/svgjs" width="22" height="22" viewBox="0 0 22 22"><title>Cross (16x16) copy</title><desc>Created with Avocode.</desc><defs id="SvgjsDefs1001"></defs><path id="SvgjsPath1007" d="M900.745 2538.51C901.059 2538.8300000000004 901.059 2539.34 900.745 2539.65L894.469 2545.92C894.1550000000001 2546.2400000000002 894.1550000000001 2546.75 894.469 2547.06L900.7420000000001 2553.33C901.0550000000001 2553.65 901.0550000000001 2554.16 900.7420000000001 2554.47L898.4570000000001 2556.75C898.1430000000001 2557.06 897.6290000000001 2557.06 897.3160000000001 2556.75L891.0450000000002 2550.48C890.7310000000002 2550.17 890.2170000000002 2550.17 889.9040000000002 2550.48L883.6280000000003 2556.75C883.3140000000003 2557.06 882.8000000000003 2557.06 882.4870000000003 2556.75L880.2050000000003 2554.47C879.8910000000003 2554.1499999999996 879.8910000000003 2553.64 880.2050000000003 2553.33L886.4820000000003 2547.06C886.7960000000003 2546.75 886.7960000000003 2546.23 886.4820000000003 2545.92L880.2100000000003 2539.65C879.8960000000003 2539.33 879.8960000000003 2538.82 880.2100000000003 2538.51L882.4940000000003 2536.23C882.8080000000002 2535.92 883.3220000000002 2535.92 883.6350000000002 2536.23L889.9060000000002 2542.5C890.2190000000002 2542.81 890.7330000000002 2542.81 891.0460000000002 2542.5L897.3220000000001 2536.23C897.6350000000001 2535.92 898.1490000000001 2535.92 898.4630000000001 2536.23Z " fill="#34495e" fill-opacity="1" transform="matrix(1,0,0,1,-879,-2535)"></path><path id="SvgjsPath1008" d="M900.745 2538.51C901.059 2538.8300000000004 901.059 2539.34 900.745 2539.65L894.469 2545.92C894.1550000000001 2546.2400000000002 894.1550000000001 2546.75 894.469 2547.06L900.7420000000001 2553.33C901.0550000000001 2553.65 901.0550000000001 2554.16 900.7420000000001 2554.47L898.4570000000001 2556.75C898.1430000000001 2557.06 897.6290000000001 2557.06 897.3160000000001 2556.75L891.0450000000002 2550.48C890.7310000000002 2550.17 890.2170000000002 2550.17 889.9040000000002 2550.48L883.6280000000003 2556.75C883.3140000000003 2557.06 882.8000000000003 2557.06 882.4870000000003 2556.75L880.2050000000003 2554.47C879.8910000000003 2554.1499999999996 879.8910000000003 2553.64 880.2050000000003 2553.33L886.4820000000003 2547.06C886.7960000000003 2546.75 886.7960000000003 2546.23 886.4820000000003 2545.92L880.2100000000003 2539.65C879.8960000000003 2539.33 879.8960000000003 2538.82 880.2100000000003 2538.51L882.4940000000003 2536.23C882.8080000000002 2535.92 883.3220000000002 2535.92 883.6350000000002 2536.23L889.9060000000002 2542.5C890.2190000000002 2542.81 890.7330000000002 2542.81 891.0460000000002 2542.5L897.3220000000001 2536.23C897.6350000000001 2535.92 898.1490000000001 2535.92 898.4630000000001 2536.23Z " fill="#ee3643" fill-opacity="1" transform="matrix(1,0,0,1,-879,-2535)"></path></svg>